{"title":"19 Kids and Counting - s00e14 - A Decade of Duggar Delivaries","uid":12349747,"size":1915372405,"categoryP":"video","categoryS":"hd___tv_shows","magnet":"?xt=urn:btih:aea76bcf5934e90bfd9d5fb44352b466b1b7f306&amp;dn=19+Kids+and+Counting+-+s00e14+-+A+Decade+of+Duggar+Delivaries&amp;tr=udp%3A%2F%2Ftracker.openbittorrent.com%3A80&amp;tr=udp%3A%2F%2Fopen.demonii.com%3A1337&amp;tr=udp%3A%2F%2Ftracker.coppersurfer.tk%3A6969&amp;tr=udp%3A%2F%2Fexodus.desync.com%3A6969","seeders":0,"leechers":0,"uploader":null,"files":14,"time":1441404186,"description":"Let's try to keep comments about the torrent, and not about recent news stories.\n\n Before they aired the episode about Jill's baby, TLC aired a three hour long special that covered every single birth since Jackson. As this episode features clips from over 11 years, video quality varies greatly from the earlier episodes (filmed in 16x9 SD) to the newer episodes.\n\n As this was a special, and not an episode, according to TheTVD, this would make it a season 0 episode. Feel free to rename it.\n\n General\n Complete name : 19 Kids And Counting - s0e14 - A Decade of Duggar Deliveries19 Kids and Counting - s0e14 - A Decade Of Duggar Deliveries.mp4\n Format : MPEG-4\n Format profile : Base Media / Version 2\n Codec ID : mp42\n File size : 1.75 GiB\n Duration : 2h 6mn\n Overall bit rate mode : Variable\n Overall bit rate : 1 978 Kbps\n Encoded date : UTC 2015-08-20 17:24:14\n Tagged date : UTC 2015-08-21 04:25:51\n\n Video\n ID : 1\n Format : AVC\n Format/Info : Advanced Video Codec\n Format profile : &lt;a class=&quot;__cf_email__&quot; href=&quot;/cdn-cgi/l/email-protection&quot; data-cfemail=&quot;2c64454b446c6018021e&quot;&gt;[email&amp;#160;protected]&lt;/a&gt;&lt;script data-cfhash='f9e31' type=&quot;text/javascript&quot;&gt;\n/* &lt;![CDATA[ */!function(){try{var t=&quot;currentScript&quot;in document?document.currentScript:function(){for(var t=document.getElementsByTagName(&quot;script&quot;),e=t.length;e--;)if(t[e].getAttribute(&quot;data-cfhash&quot;))return t[e]}();if(t&amp;&amp;t.previousSibling){var e,r,n,i,c=t.previousSibling,a=c.getAttribute(&quot;data-cfemail&quot;);if(a){for(e=&quot;&quot;,r=parseInt(a.substr(0,2),16),n=2;a.length-n;n+=2)i=parseInt(a.substr(n,2),16)^r,e+=String.fromCharCode(i);e=document.createTextNode(e),c.parentNode.replaceChild(e,c)}t.parentNode.removeChild(t);}}catch(u){}}()/* ]]&gt; */&lt;/script&gt;\n Format settings, CABAC : Yes\n Format settings, ReFrames : 4 frames\n Codec ID : avc1\n Codec ID/Info : Advanced Video Coding\n Duration : 2h 6mn\n Bit rate : 1 751 Kbps\n Nominal bit rate : 3 500 Kbps\n Width : 1 920 pixels\n Height : 1 080 pixels\n Display aspect ratio : 16:9\n Frame rate mode : Variable\n Frame rate : 29.970 fps\n Original frame rate : 59.940 fps\n Minimum frame rate : 29.960 fps\n Maximum frame rate : 59.016 fps\n Color space : YUV\n Chroma subsampling : 4:2:0\n Bit depth : 8 bits\n Scan type : Progressive\n Bits/(Pixel*Frame) : 0.028\n Stream size : 1.55 GiB (89%)\n Writing library : x264 core 146 r2538 121396c\n Encoding settings : cabac=1 / ref=3 / deblock=1:0:0 / analyse=0x3:0x133 / me=hex / subme=7 / psy=1 / psy_rd=1.00:0.00 / mixed_ref=1 / me_range=16 / chroma_me=1 / trellis=1 / 8x8dct=1 / cqm=0 / deadzone=21,11 / fast_pskip=1 / chroma_qp_offset=-2 / threads=3 / lookahead_threads=1 / sliced_threads=0 / nr=0 / decimate=1 / interlaced=0 / bluray_compat=0 / constrained_intra=0 / bframes=3 / b_pyramid=2 / b_adapt=1 / b_bias=0 / direct=1 / weightb=1 / open_gop=0 / weightp=2 / keyint=250 / keyint_min=25 / scenecut=40 / intra_refresh=0 / rc_lookahead=40 / rc=2pass / mbtree=1 / bitrate=3500 / ratetol=1.0 / qcomp=0.60 / qpmin=10 / qpmax=51 / qpstep=4 / cplxblur=20.0 / qblur=0.5 / ip_ratio=1.40 / aq=1:1.00\n Encoded date : UTC 2015-08-20 17:24:14\n Tagged date : UTC 2015-08-21 04:25:49\n\n Audio\n ID : 2\n Format : AAC\n Format/Info : Advanced Audio Codec\n Format profile : LC\n Codec ID : 40\n Duration : 2h 6mn\n Source duration : 2h 6mn\n Bit rate mode : Variable\n Bit rate : 221 Kbps\n Channel(s) : 2 channels\n Channel positions : Front: L R\n Sampling rate : 48.0 KHz\n Compression mode : Lossy\n Stream size : 200 MiB (11%)\n Source stream size : 200 MiB (11%)\n Title : Stereo\n Language : English\n Encoded date : UTC 2015-08-20 17:24:16\n Tagged date : UTC 2015-08-21 04:25:49","torrent":{"xt":"urn:btih:aea76bcf5934e90bfd9d5fb44352b466b1b7f306","amp;dn":"19+Kids+and+Counting+-+s00e14+-+A+Decade+of+Duggar+Delivaries","amp;tr":["udp%3A%2F%2Ftracker.openbittorrent.com%3A80","udp%3A%2F%2Fopen.demonii.com%3A1337","udp%3A%2F%2Ftracker.coppersurfer.tk%3A6969","udp%3A%2F%2Fexodus.desync.com%3A6969"],"infoHash":"aea76bcf5934e90bfd9d5fb44352b466b1b7f306","infoHashBuffer":{"type":"Buffer","data":[174,167,107,207,89,52,233,11,253,157,95,180,67,82,180,102,177,183,243,6]},"announce":[],"urlList":[]}}